<svg width="20" height="16" viewBox="0 0 20 16" fill="none" xmlns="http://www.w3.org/2000/svg">
<g clip-path="url(#clip0_706_4399)">
<rect width="20" height="16" fill="#F1F1F6"/>
<path fill-rule="evenodd" clip-rule="evenodd" d="M0 0H8.57143V7.46667H0V0Z" fill="#1A47B8"/>
<path fill-rule="evenodd" clip-rule="evenodd" d="M8.57143 0V1.06667H20V0H8.57143ZM8.57143 2.13333V3.2H20V2.13333H8.57143ZM8.57143 4.26667V5.33333H20V4.26667H8.57143ZM8.57143 6.4V7.46667H20V6.4H8.57143ZM0 8.53333V9.6H20V8.53333H0ZM0 10.6667V11.7333H20V10.6667H0ZM0 12.8V13.8667H20V12.8H0ZM0 14.9333V16H20V14.9333H0Z" fill="#F93939"/>
<path fill-rule="evenodd" clip-rule="evenodd" d="M0.952393 1.06665V2.13332H1.90477V1.06665H0.952393ZM2.85715 1.06665V2.13332H3.80954V1.06665H2.85715ZM4.76192 1.06665V2.13332H5.7143V1.06665H4.76192ZM6.66668 1.06665V2.13332H7.61906V1.06665H6.66668ZM5.7143 2.13332V3.19998H6.66668V2.13332H5.7143ZM3.80954 2.13332V3.19998H4.76192V2.13332H3.80954ZM1.90477 2.13332V3.19998H2.85715V2.13332H1.90477ZM0.952393 3.19998V4.26665H1.90477V3.19998H0.952393ZM2.85715 3.19998V4.26665H3.80954V3.19998H2.85715ZM4.76192 3.19998V4.26665H5.7143V3.19998H4.76192ZM6.66668 3.19998V4.26665H7.61906V3.19998H6.66668ZM0.952393 5.33332V6.39998H1.90477V5.33332H0.952393ZM2.85715 5.33332V6.39998H3.80954V5.33332H2.85715ZM4.76192 5.33332V6.39998H5.7143V5.33332H4.76192ZM6.66668 5.33332V6.39998H7.61906V5.33332H6.66668ZM5.7143 4.26665V5.33332H6.66668V4.26665H5.7143ZM3.80954 4.26665V5.33332H4.76192V4.26665H3.80954ZM1.90477 4.26665V5.33332H2.85715V4.26665H1.90477Z" fill="#F1F1F6"/>
</g>
<defs>
<clipPath id="clip0_706_4399">
<rect width="20" height="16" fill="white"/>
</clipPath>
</defs>
</svg>
